<svg width="1288" height="1288" viewBox="0 0 1288 1288" fill="none" xmlns="http://www.w3.org/2000/svg">
<path d="M643.946 474.078C627.002 527.571 617.879 584.53 617.879 643.599C617.879 702.694 627.002 759.627 643.946 813.12L515.118 973C485.192 941.576 451.642 913.618 415.173 889.776C451.512 815.439 471.897 731.903 471.897 643.599C471.897 555.321 451.511 471.759 415.146 397.447C452.111 373.293 486.027 344.919 516.266 313L643.946 474.078ZM771.629 313C801.842 344.919 835.783 373.293 872.747 397.447C836.382 471.759 815.997 555.321 815.997 643.599C815.997 731.902 836.382 815.439 872.721 889.776C836.225 913.618 802.676 941.576 772.775 973L643.947 813.12C660.892 759.627 670.016 702.694 670.016 643.599C670.016 584.53 660.891 527.571 643.947 474.078L771.629 313Z" fill="black"/>
<path d="M644.098 470.998C732.269 470.998 815.678 450.524 889.903 414.026C913.708 450.681 941.624 484.378 973 514.408L813.362 643.801C759.95 626.782 703.104 617.618 644.098 617.618C585.119 617.618 528.247 626.782 474.835 643.801C476.89 644.481 472.753 643.146 474.835 643.801L314 515.56C345.87 485.215 374.202 451.126 398.32 414C472.519 450.524 555.954 470.998 644.098 470.998Z" fill="black"/>
<path d="M644.098 669.977C703.104 669.977 759.95 660.885 813.362 644L973 772.378C941.624 802.2 913.708 835.632 889.903 871.974C815.678 835.762 732.269 815.448 644.098 815.448C555.954 815.448 472.519 835.762 398.32 872C374.202 835.165 345.87 801.369 314 771.235L474.834 644C528.247 660.885 585.119 669.977 644.098 669.977Z" fill="black"/>
</svg>
